# AST/ASF file generated using VICON BodyLanguage
# -----------------------------------------------
:version 1.10
:name VICON
:units
  mass 1.0
  length 0.45
  angle deg
:documentation
   .ast/.asf automatically generated from VICON data using
   VICON BodyBuilder and BodyLanguage model FoxedUp or BRILLIANT.MOD
:root
   order TX TY TZ RX RY RZ
   axis XYZ
   position 0 0 0  
   orientation 0 -0 0 
:bonedata
  begin
     id 1 
     name lhipjoint
     direction 0.432694 -0.693742 0.575759 
     length 2.19277 
     axis 0 -0 0  XYZ
  end
  begin
     id 2 
     name lfemur
     direction 0.34202 -0.939693 0  
     length 6.69022  
     axis 0 -0 20  XYZ
    dof rx ry rz
    limits (-160.0 20.0)
           (-70.0 70.0)
           (-60.0 70.0)
  end
  begin
     id 3 
     name ltibia
     direction 0.34202 -0.939693 0   
     length 6.50337   
     axis 0 -0 20   XYZ
    dof rx
    limits (-10.0 170.0)
  end
  begin
     id 4 
     name lfoot
     direction 0.158999 -0.435969 0.885805   
     length 2.70564   
     axis -90 -1.13533e-015 20   XYZ
    dof rx rz
    limits (-45.0 90.0)
           (-70.0 20.0)
  end
  begin
     id 5 
     name ltoes
     direction -0.00592919 0.00964381 0.999936   
     length 1.29929   
     axis -90 -1.13533e-015 20   XYZ
    dof rx
    limits (-90.0 20.0)
  end
  begin
     id 6 
     name rhipjoint
     direction -0.414359 -0.700339 0.581234   
     length 2.17212  
     axis 0 -0 0  XYZ 
  end
  begin
     id 7 
     name rfemur
     direction -0.34202 -0.939693 0   
     length 7.17659   
     axis 0 -0 -20   XYZ
    dof rx ry rz
    limits (-160.0 20.0)
           (-70.0 70.0)
           (-70.0 60.0)
  end
  begin
     id 8 
     name rtibia
     direction -0.34202 -0.939693 0   
     length 6.36669   
     axis 0 -0 -20   XYZ
    dof rx
    limits (-10.0 170.0)
 end
 begin
     id 9 
     name rfoot
     direction -0.137064 -0.37658 0.916188   
     length 2.22351  
     axis -90 1.13533e-015 -20   XYZ
    dof rx rz
    limits (-45.0 90.0)
           (-20.0 70.0)
  end
  begin
     id 10 
     name rtoes
     direction -0.000784077 -0.00289101 0.999996   
     length 1.09522   
     axis -90 1.13533e-015 -20   XYZ
    dof rx
    limits (-90.0 20.0)
  end
  begin
     id 11 
     name lowerback
     direction -0.0176242 0.984912 -0.172157   
     length 1.65301   
     axis 0 -0 0   XYZ
    dof rx ry rz
    limits (-20.0 45.0)
           (-30.0 30.0)
           (-30.0 30.0)
  end
  begin
     id 12 
     name upperback
     direction -0.00218128 0.998776 -0.0494072   
     length 1.67776   
     axis 0 -0 0   XYZ
    dof rx ry rz
    limits (-20.0 45.0)
           (-30.0 30.0)
           (-30.0 30.0)
  end
  begin
     id 13 
     name thorax
     direction 0.00544186 0.999658 0.0255711   
     length 1.72293   
     axis 0 -0 0   XYZ
    dof rx ry rz
    limits (-20.0 45.0)
           (-30.0 30.0)
           (-30.0 30.0)
  end
  begin
     id 14 
     name lowerneck
     direction -0.105325 0.983841 0.144785   
     length 2.14226   
     axis 0 -0 0   XYZ
    dof rx ry rz
    limits (-20.0 45.0)
           (-30.0 30.0)
           (-30.0 30.0)
  end
  begin
     id 15 
     name upperneck
     direction 0.0547957 0.988053 -0.144041   
     length 2.17508   
     axis 0 -0 0   XYZ
    dof rx ry rz
    limits (-20.0 45.0)
           (-30.0 30.0)
           (-30.0 30.0)
  end
  begin
     id 16
     name head
     direction 0.0247488 0.997534 -0.0656813  
     length 2.20048  
     axis 0 -0 0   XYZ
    dof rx ry rz
    limits (-20.0 45.0)
           (-30.0 30.0)
           (-30.0 30.0)
  end
  begin
     id 17 
     name lclavicle
     direction 0.820559 0.567247 -0.0701026  
     length 4.09615  
     axis 0 -0 0   XYZ
    dof ry rz
    limits (-20.0 10.0)
           (0.0 20.0)
  end
  begin
     id 18 
     name lhumerus
     direction 0.999977 -0.0067566 -9.96392e-005   
     length 4.59333   
     axis -180 -30 -90   XYZ
    dof rx ry rz
    limits (-60.0 90.0)
           (-90.0 90.0)
           (-90.0 90.0)
  end
  begin
     id 19
     name lradius
     direction 1 -4.48982e-011 -2.53425e-027   
     length 2.81151   
     axis -180 -30 -90   XYZ
    dof rx
    limits (-10.0 170.0)
  end
  begin
     id 20
     name lwrist
     direction 1 -4.48939e-011 -7.39254e-028   
     length 1.40576   
     axis 2.56395e-016 90 90   XYZ
    dof ry
    limits (-180.0 0.0)
 end
  begin
     id 21 
     name lhand
     direction 1 -4.48939e-011 -1.47851e-027   
     length 0.895651   
     axis 9.43423e-016 90 90   XYZ
    dof rx rz
    limits (-90.0 90.0)
           (-45.0 45.0)
  end
  begin
     id 22 
     name lfingers
     direction 1 -4.48978e-011 -2.95702e-027   
     length 0.722097   
     axis 1.88685e-015 90 90   XYZ
    dof rx
    limits (0.0 90.0)
  end
  begin
     id 23
     name lthumb
     direction 0.707107 -6.34931e-011 0.707107   
     length 1.03679   
     axis -90 45 -9.86935e-015   XYZ
    dof rx rz
    limits (-45.0 45.0)
           (-45.0 45.0)
  end
  begin
     id 24 
     name rclavicle
     direction -0.831414 0.553102 -0.0531864   
     length 4.24872  
     axis 0 -0 0   XYZ 
    dof ry rz
    limits (-10.0 20.0)
           (-20.0 0.0)
  end
  begin
     id 25 
     name rhumerus
     direction -0.999916 -0.000939607 0.0129331  
     length 4.74834   
     axis -180 30 90   XYZ
    dof rx ry rz
    limits (-90.0 60.0)
           (-90.0 90.0)
           (-90.0 90.0)
  end
  begin
     id 26 
     name rradius
     direction -1 -4.48956e-011 -1.31752e-027   
     length 2.79907   
     axis -180 30 90   XYZ
    dof rx
    limits (-10.0 170.0)
  end
  begin
     id 27 
     name rwrist
     direction -1 -4.4897e-011 -7.39254e-028   
     length 1.39954   
     axis 2.56395e-016 -90 -90   XYZ
    dof ry
    limits (-180.0 0.0)
  end
  begin
     id 28
     name rhand
     direction -0.999997 -0.00250697 0.000800838   
     length 0.953304   
     axis 9.43423e-016 -90 -90   XYZ
    dof rx rz
    limits (-90.0 90.0)
           (-45.0 45.0)
  end
  begin
     id 29
     name rfingers
     direction -1 -4.48954e-011 -2.95702e-027   
     length 0.763342   
     axis 1.88685e-015 -90 -90   XYZ
    dof rx
    limits (0.0 90.0)
  end
  begin
     id 30
     name rthumb
     direction -0.709701 -0.00217037 0.7045   
     length 1.10115   
     axis -90 -45 9.86935e-015   XYZ
    dof rx rz
    limits (-45.0 45.0)
           (-45.0 45.0)
  end
:hierarchy
  begin
    root lhipjoint rhipjoint lowerback
    lhipjoint lfemur
    lfemur ltibia
    ltibia lfoot
    lfoot ltoes
    rhipjoint rfemur
    rfemur rtibia
    rtibia rfoot
    rfoot rtoes
    lowerback upperback
    upperback thorax
    thorax lowerneck lclavicle rclavicle
    lowerneck upperneck
    upperneck head
    lclavicle lhumerus
    lhumerus lradius
    lradius lwrist
    lwrist lhand lthumb
    lhand lfingers
    rclavicle rhumerus
    rhumerus rradius
    rradius rwrist
    rwrist rhand rthumb
    rhand rfingers
  end

#!OML:ASF G:\ViconDB\ViconDB\414\test\team2\shane.ASF
:FULLY-SPECIFIED
:DEGREES
113
root 1.23755 16.8324 -13.3507 -6.16374 3.15095 -4.0725
lowerback 10.6634 -1.92302 -2.19331
upperback 3.36334 -2.6837 3.11535
thorax -2.21002 -1.35422 4.81096
lowerneck -14.71 -2.59076 -9.14675
upperneck 15.9673 -3.43585 10.4014
head 7.67474 -1.23543 4.59919
rclavicle -3.69739e-014 -4.37326e-015
rhumerus -43.2671 -9.74647 -73.9635
rradius 21.3
rwrist 49.7177
rhand -27.6923 -13.2764
rfingers 7.12502
rthumb -1.08873 -43.2534
lclavicle -3.69739e-014 -4.37326e-015
lhumerus -17.269 -18.0242 95.385
lradius 25.2024
lwrist -21.1634
lhand -39.9779 6.33549
lfingers 7.12502
lthumb -12.9465 35.9138
rfemur -18.7733 -17.037 19.0449
rtibia 35.8887
rfoot -20.8702 5.83919
rtoes -17.7092
lfemur 21.8343 8.3427 -11.8777
ltibia 6.36111e-015
lfoot -18.3464 -23.653
ltoes -5.54222
114
root 1.22196 16.8166 -13.1795 -6.11422 3.28621 -4.08824
lowerback 10.6592 -1.96739 -2.2149
upperback 3.32994 -2.74406 3.12558
thorax -2.23495 -1.38333 4.84181
lowerneck -14.5609 -2.57521 -8.85727
upperneck 15.7095 -3.41665 10.1005
head 7.55191 -1.24086 4.44389
rclavicle 3.27995e-014 -2.26615e-014
rhumerus -44.2307 -10.4276 -72.8673
rradius 21.1354
rwrist 51.0396
rhand -27.7575 -13.4087
rfingers 7.12502
rthumb -1.15168 -43.3853
lclavicle 3.27995e-014 -2.26615e-014
lhumerus -16.4976 -18.2425 95.2557
lradius 25.9913
lwrist -21.3256
lhand -40.1788 6.07239
lfingers 7.12502
lthumb -13.1401 35.6384
rfemur -19.4626 -17.3195 19.497
rtibia 33.7702
rfoot -21.1612 6.37134
rtoes -17.6701
lfemur 22.3857 7.94569 -11.7982
ltibia 5.725e-014
lfoot -18.7142 -23.3512
ltoes -5.86863
115
root 1.21505 16.7968 -13.0061 -6.08939 3.41994 -4.11597
lowerback 10.6512 -2.04501 -2.13279
upperback 3.29346 -2.83663 3.16998
thorax -2.26122 -1.42843 4.85338
lowerneck -14.4544 -2.5824 -8.90111
upperneck 15.5984 -3.40466 10.0341
head 7.49514 -1.24697 4.4277
rclavicle 1.00635e-014 5.1684e-015
rhumerus -45.0799 -10.7466 -71.9402
rradius 21.1419
rwrist 50.9745
rhand -27.5478 -13.0724
rfingers 7.12502
rthumb -0.949203 -43.05
lclavicle 1.00635e-014 5.1684e-015
lhumerus -15.8263 -17.87 95.2047
lradius 26.8306
lwrist -21.7742
lhand -40.2351 5.86813
lfingers 7.12502
lthumb -13.1944 35.4306
rfemur -20.1864 -18.2218 19.9575
rtibia 32.0585
rfoot -21.6136 7.69572
rtoes -18.1127
lfemur 23.0299 7.54816 -11.7171
ltibia 2.54444e-014
lfoot -19.3044 -23.0269
ltoes -6.32151
116
root 1.20035 16.7775 -12.8288 -6.16274 3.4711 -4.03244
lowerback 10.6178 -2.05352 -2.25507
upperback 3.36569 -2.86134 3.17813
thorax -2.15835 -1.44462 4.93018
lowerneck -14.5087 -2.57385 -9.15769
upperneck 15.5665 -3.38546 10.3379
head 7.50191 -1.22463 4.57604
rclavicle -3.80176e-015 1.90833e-014
rhumerus -45.803 -10.7689 -71.4066
rradius 21.233
rwrist 50.5091
rhand -27.4565 -13.2543
rfingers 7.12502
rthumb -0.860975 -43.2323
lclavicle -3.80176e-015 1.90833e-014
lhumerus -15.2554 -18.6493 95.2174
lradius 27.9035
lwrist -20.9054
lhand -40.6201 6.43447
lfingers 7.12502
lthumb -13.5655 35.9725
rfemur -20.9159 -19.544 20.4094
rtibia 30.8093
rfoot -22.1477 9.34363
rtoes -18.0448
lfemur 23.7577 7.22304 -11.7102
ltibia 0
lfoot -19.7057 -22.7903
ltoes -6.44089
117
root 1.18367 16.7566 -12.6465 -6.17762 3.58053 -3.86037
lowerback 10.5512 -2.07746 -2.50048
upperback 3.38222 -2.91771 3.2062
thorax -2.0843 -1.4757 5.10155
lowerneck -14.4493 -2.57161 -9.23583
upperneck 15.4453 -3.35484 10.3054
head 7.44944 -1.21956 4.57896
rclavicle 7.49667e-014 -2.14687e-014
rhumerus -46.5507 -11.0372 -70.4887
rradius 21.2111
rwrist 50.8425
rhand -27.3536 -13.0704
rfingers 7.12502
rthumb -0.76165 -43.0488
lclavicle 7.49667e-014 -2.14687e-014
lhumerus -14.7682 -18.8822 95.2054
lradius 28.8604
lwrist -20.7506
lhand -40.6903 6.26489
lfingers 7.12502
lthumb -13.6332 35.7984
rfemur -21.8544 -21.6681 20.949
rtibia 30.0546
rfoot -22.7832 11.4393
rtoes -18.0464
lfemur 24.4424 6.85983 -11.8177
ltibia 7.95139e-014
lfoot -20.0122 -22.573
ltoes -7.10518
118
root 1.17421 16.7352 -12.4658 -6.18609 3.66768 -3.78599
lowerback 10.5077 -2.1164 -2.44727
upperback 3.4102 -2.96476 3.17135
thorax -2.03116 -1.50056 5.03663
lowerneck -14.4702 -2.53486 -9.01616
upperneck 15.347 -3.30078 10.0679
head 7.4079 -1.20164 4.465
rclavicle -1.87355e-014 7.35503e-015
rhumerus -47.3075 -11.6191 -69.6168
rradius 21.1995
rwrist 51.4662
rhand -27.3832 -13.068
rfingers 7.12502
rthumb -0.790152 -43.0463
lclavicle -1.87355e-014 7.35503e-015
lhumerus -14.1968 -19.0067 95.0835
lradius 29.7074
lwrist -20.4957
lhand -40.9829 5.9942
lfingers 7.12502
lthumb -13.9152 35.5086
rfemur -22.9532 -24.6226 21.7835
rtibia 29.657
rfoot -22.9712 14.3938
rtoes -17.1249
lfemur 25.1366 6.51189 -11.8383
ltibia -4.13472e-014
lfoot -20.3976 -22.3157
ltoes -7.96732
